<?xml version="1.0" encoding="UTF-8"?>
<svg id="Layer_1" xmlns="http://www.w3.org/2000/svg" version="1.1" viewBox="0 0 263.42 229.57">
  <!-- Generator: Adobe Illustrator 30.6.0, SVG Export Plug-In . SVG Version: 2.1.4 Build 109)  -->
  <defs>
    <style>
      .st0 {
        fill: #ec108c;
      }

      .st1 {
        fill: #27bcee;
      }

      .st2 {
        fill: #fff;
      }

      .st3 {
        fill: #8ec741;
      }

      .st4 {
        fill: none;
        stroke: #010101;
        stroke-miterlimit: 10;
        stroke-width: 6.24px;
      }
    </style>
  </defs>
  <path class="st1" d="M148.99,226.45h-78.91c-25.86,0-37.25-20.75-25.32-46.1l37.86-80.47c20.31-40.67,30.73-46.1,68.71-46.1h78.91c25.86,0,37.25,20.75,25.32,46.1l-37.86,80.47c-19.35,41.26-26.48,46.1-68.71,46.1"/>
  <path class="st4" d="M148.99,226.45h-78.91c-25.86,0-37.25-20.75-25.32-46.1l37.86-80.47c20.31-40.67,30.73-46.1,68.71-46.1h78.91c25.86,0,37.25,20.75,25.32,46.1l-37.86,80.47c-19.35,41.26-26.48,46.1-68.71,46.1Z"/>
  <path class="st3" d="M112.09,175.79H33.18c-25.86,0-37.25-20.75-25.32-46.1L45.72,49.22C66.03,8.55,76.45,3.12,114.43,3.12h78.91c25.86,0,37.25,20.75,25.32,46.1l-37.86,80.47c-19.35,41.25-26.48,46.1-68.71,46.1"/>
  <path class="st4" d="M112.09,175.79H33.18c-25.86,0-37.25-20.75-25.32-46.1L45.72,49.22C66.03,8.55,76.45,3.12,114.43,3.12h78.91c25.86,0,37.25,20.75,25.32,46.1l-37.86,80.47c-19.35,41.25-26.48,46.1-68.71,46.1Z"/>
  <path class="st0" d="M131.42,201.27H52.51c-25.86,0-37.25-20.75-25.32-46.1l37.86-80.47c20.31-40.67,30.73-46.1,68.71-46.1h78.91c25.86,0,37.25,20.75,25.32,46.1l-37.86,80.47c-19.35,41.26-26.48,46.1-68.71,46.1"/>
  <path class="st4" d="M131.42,201.27H52.51c-25.86,0-37.25-20.75-25.32-46.1l37.86-80.47c20.31-40.67,30.73-46.1,68.71-46.1h78.91c25.86,0,37.25,20.75,25.32,46.1l-37.86,80.47c-19.35,41.26-26.48,46.1-68.71,46.1Z"/>
  <path class="st2" d="M138.29,61.71c0-1.39-.52-2.58-1.56-3.56-1.04-.98-2.32-1.47-3.83-1.47-1.06,0-2,.21-2.79.62-.8.41-1.6,1.21-2.4,2.38-.8,1.17-1.58,2.57-2.33,4.17l-31.24,66.12c-1.24,2.57-1.86,4.44-1.86,5.61,0,1.48.5,2.71,1.5,3.69,1,.98,2.3,1.47,3.89,1.47s2.98-.5,4.02-1.5c1.04-1,2.21-2.89,3.49-5.68l31.18-66.12c1.29-2.61,1.93-4.52,1.93-5.74"/>
  <path class="st2" d="M159.35,87.97c2.06-2.67,3.68-5.6,4.86-8.78,1.17-3.17,1.76-6.35,1.76-9.53,0-4.04-.82-7.74-2.46-11.09-1.64-3.35-3.96-6.25-6.95-8.71-3-2.46-6.61-4.37-10.85-5.74-4.24-1.37-8.82-2.05-13.74-2.05-8.83,0-17.3,1.96-25.42,5.87s-14.63,9.11-19.53,15.59c-4.9,6.48-7.35,13.29-7.35,20.42,0,3.61.74,7.11,2.23,10.5,1.49,3.39,3.46,6.11,5.92,8.16,2.46,2.04,5,3.07,7.62,3.07,1.69,0,3.08-.51,4.19-1.53,1.11-1.02,1.66-2.32,1.66-3.88s-.75-3-2.26-4.18l-2.79-2.09c-3.06-2.39-4.59-5.72-4.59-9.98,0-5.18,1.89-10.19,5.66-15.04,3.77-4.85,8.74-8.76,14.9-11.74s12.53-4.47,19.1-4.47c4.26,0,8.11.71,11.55,2.12,3.44,1.41,6.1,3.39,7.98,5.94,1.89,2.55,2.83,5.47,2.83,8.78,0,2.91-.72,5.79-2.16,8.61-1.44,2.83-3.46,5.27-6.06,7.34-2.59,2.07-5.56,3.58-8.88,4.54l-2.73.78c-2.71.83-4.06,2.44-4.06,4.83,0,1.65.59,2.97,1.76,3.95,1.17.98,2.74,1.47,4.69,1.47s4.39-.55,7.32-1.66c2.93-1.11,5.66-2.56,8.18-4.34,3.02-2.09,5.56-4.47,7.62-7.15"/>
  <path class="st2" d="M156.98,118.41l-28.25,62.8c-1.29,2.78-2.45,4.68-3.49,5.68-1.04,1-2.36,1.5-3.96,1.5s-2.85-.49-3.89-1.47c-1.04-.98-1.56-2.19-1.56-3.62,0-1.18.62-3.07,1.86-5.68l26.59-59.21h-14.84c-3.24,0-5.44-.33-6.59-.98-1.6-.96-2.4-2.37-2.4-4.24,0-2.52,1.13-4.28,3.39-5.28,1.15-.57,3.46-.85,6.92-.85h64.05c3.28,0,5.48.33,6.59.98,1.64,1,2.46,2.41,2.46,4.24,0,2.44-1.13,4.2-3.39,5.28-1.29.57-3.59.85-6.92.85h-36.57Z"/>
</svg>