<?xml version="1.0" encoding="UTF-8"?>
<svg id="Layer_1" xmlns="http://www.w3.org/2000/svg" version="1.1" viewBox="0 0 906.67 206.03">
  <!-- Generator: Adobe Illustrator 30.6.0, SVG Export Plug-In . SVG Version: 2.1.4 Build 109)  -->
  <defs>
    <style>
      .st0 {
        fill: #010101;
      }
    </style>
  </defs>
  <path class="st0" d="M120.02,41c0-2.91-1.07-5.38-3.2-7.42-2.14-2.04-4.75-3.07-7.83-3.07-2.18,0-4.09.43-5.72,1.29-1.63.86-3.27,2.52-4.9,4.97-1.63,2.45-3.22,5.36-4.77,8.72L29.62,183.55c-2.54,5.36-3.81,9.26-3.81,11.72,0,3.09,1.02,5.65,3.06,7.7,2.04,2.04,4.7,3.07,7.97,3.07s6.11-1.04,8.24-3.13c2.13-2.09,4.52-6.04,7.15-11.85L116.07,52.99c2.63-5.45,3.95-9.44,3.95-11.99"/>
  <path class="st0" d="M163.14,95.84c4.22-5.59,7.54-11.69,9.94-18.32,2.41-6.63,3.61-13.26,3.61-19.89,0-8.45-1.68-16.17-5.04-23.16-3.36-6.99-8.11-13.05-14.24-18.19-6.13-5.13-13.54-9.13-22.21-11.99-8.67-2.86-18.05-4.29-28.13-4.29-18.07,0-35.42,4.09-52.04,12.26-16.62,8.17-29.95,19.03-39.98,32.56C5.02,58.35,0,72.57,0,87.46c0,7.54,1.52,14.85,4.56,21.93,3.04,7.08,7.08,12.76,12.12,17.03,5.04,4.27,10.24,6.4,15.6,6.4,3.45,0,6.31-1.06,8.58-3.2,2.27-2.13,3.41-4.84,3.41-8.11s-1.54-6.27-4.63-8.72l-5.72-4.36c-6.27-4.99-9.4-11.94-9.4-20.84,0-10.81,3.86-21.27,11.58-31.4,7.72-10.13,17.89-18.3,30.51-24.52,12.62-6.22,25.66-9.33,39.1-9.33,8.72,0,16.6,1.48,23.64,4.43,7.04,2.95,12.49,7.08,16.35,12.4,3.86,5.31,5.79,11.42,5.79,18.32,0,6.08-1.48,12.08-4.43,17.98-2.95,5.9-7.08,11.01-12.4,15.32-5.31,4.32-11.37,7.47-18.19,9.47l-5.59,1.63c-5.54,1.73-8.31,5.09-8.31,10.08,0,3.45,1.2,6.2,3.61,8.24,2.41,2.04,5.61,3.06,9.6,3.06s8.99-1.16,14.98-3.47c5.99-2.32,11.58-5.34,16.76-9.06,6.18-4.36,11.37-9.33,15.6-14.92"/>
  <path class="st0" d="M316.79,131.22c-.26.55-.48,1.08-.72,1.62-.01,0-.02.01-.03.02l-7.08,4.63c-5.9,3.73-11.67,7.04-17.3,9.94-4.54,2.45-8.13,3.68-10.76,3.68s-3.81-1.23-3.81-3.68c0-2.27,1.45-6.58,4.36-12.94l18.94-40.32h15.94c2.04,0,6.61-.06,11.9-.16,1.39.1,2.93.16,4.66.16h1.23l-17.3,37.05ZM539.9,130.26c-1.54,0-3,.32-4.36.95-1.36.64-4.27,2.32-8.72,5.04-7.81,4.9-15.71,9.04-23.7,12.4-7.99,3.36-14.12,5.04-18.39,5.04-2.09,0-3.77-.5-5.04-1.5-1.27-1-1.91-2.36-1.91-4.09,0-2.91,2.81-6.9,8.45-11.99l10.76-9.94c7.81-7.27,13.24-13.21,16.28-17.85,3.04-4.63,4.56-9.4,4.56-14.31,0-6.08-2.29-11.01-6.88-14.78-4.59-3.77-10.65-5.65-18.19-5.65-1,0-1.95.05-2.86.14l.41-.95c2.18-4.63,3.27-7.99,3.27-10.08,0-2.91-1-5.27-3-7.08-2-1.82-4.45-2.72-7.36-2.72-3.09,0-5.54.89-7.36,2.66-1.82,1.77-4.09,5.52-6.81,11.24l-7.9,16.76c-2.36,5.18-3.54,8.81-3.54,10.9,0,2.91.98,5.29,2.93,7.15,1.95,1.86,4.43,2.79,7.42,2.79s5.36-.91,7.36-2.72c2-1.82,3.95-4.9,5.86-9.26,3.9.09,6.67.54,8.31,1.36,1.63.82,2.45,2.27,2.45,4.36,0,1.73-.61,3.31-1.84,4.77-1.23,1.45-4.97,4.95-11.24,10.49-7.6,6.82-13.53,12.44-17.82,16.89-.1.09-.19.17-.3.28-10.76,10.92-21.96,14.94-31.45,18.39-9.49,3.45-17.1,5.18-22.82,5.18-4.63,0-6.95-1.68-6.95-5.04,0-2.27,1.11-4.34,3.34-6.2,2.22-1.86,5.83-3.93,10.83-6.2l12.26-5.45c4.18-1.82,7.04-3.09,8.58-3.81,3.27-1.36,5.61-2.88,7.02-4.56,1.41-1.68,2.11-3.7,2.11-6.06,0-2.63-.95-4.9-2.86-6.81-1.91-1.91-4.09-2.86-6.54-2.86-3,0-9.13,2.18-18.39,6.54-.82-2-1.23-3.72-1.23-5.18,0-2.27.84-4.27,2.52-5.99,1.68-1.73,4.52-3.5,8.51-5.31l9.4-4.09c7.27-3.18,11.72-5.27,13.35-6.27,2.54-1.91,3.81-4.36,3.81-7.36,0-2.81-.98-5.13-2.93-6.95-1.95-1.82-4.38-2.72-7.29-2.72-2,0-5.38.84-10.15,2.52-4.77,1.68-9.74,3.79-14.92,6.33-15.98,7.9-23.98,17.98-23.98,30.24,0,4.54,1.27,9.22,3.81,14.03-3.62,1.9-6.77,3.93-9.47,6.08-5.67,4-11.72,7.52-16.73,10.1-4.54,2.45-29.12,12.01-31.75,12.01s-3.81-1.23-3.81-3.68c0-2.27,1.45-6.58,4.36-12.94l18.94-40.32h15.94c6.18,0,10.26-.5,12.26-1.5,4.09-1.91,6.13-5.13,6.13-9.67,0-3.36-1.18-5.74-3.54-7.15-2.36-1.41-6.54-2.11-12.53-2.11h-8.72l5.04-11.03c2.45-5.09,3.68-8.81,3.68-11.17,0-2.81-1-5.13-3-6.95-2-1.82-4.45-2.72-7.36-2.72-3.09,0-5.56.91-7.42,2.72-1.86,1.82-4.11,5.54-6.74,11.17l-8.45,17.98h-33.72l5.04-11.03c2.45-5.09,3.68-8.81,3.68-11.17,0-2.81-1-5.13-3-6.95-2-1.82-4.45-2.72-7.36-2.72-3.09,0-5.56.91-7.42,2.72-1.86,1.82-4.11,5.54-6.74,11.17l-8.45,17.98h-8.45c-6.09,0-10.17.45-12.26,1.36-1.91.91-3.41,2.27-4.5,4.09-1.09,1.82-1.63,3.63-1.63,5.45,0,3.45,1.45,6.04,4.36,7.76,2,1.18,5.9,1.77,11.72,1.77h1.23l-17.3,37.05c-.19.41-.35.8-.53,1.2-1.16.8-2.39,1.75-3.69,2.88-12.9,10.9-21.62,16.35-26.16,16.35-1,0-1.98-.43-2.93-1.29-.95-.86-1.43-1.84-1.43-2.93,0-1.27.95-4,2.86-8.17l1.77-3.54,20.02-43.05c2.45-5.36,3.68-9.08,3.68-11.17,0-2.82-.95-5.13-2.86-6.95-1.91-1.82-4.4-2.72-7.49-2.72s-5.61.95-7.56,2.86c-1.95,1.91-4.2,5.59-6.74,11.04l-23.29,49.99c-6.54,5.45-11.88,9.4-16.01,11.85-4.13,2.45-7.61,3.68-10.42,3.68s-4.09-1.36-4.09-4.09c0-2.27,1.54-6.63,4.63-13.08l1.23-2.45,18.12-38.96c2.45-5.36,3.68-9.08,3.68-11.17,0-2.82-.95-5.13-2.86-6.95-1.91-1.82-4.4-2.72-7.49-2.72s-5.61.95-7.56,2.86c-1.95,1.91-4.2,5.59-6.74,11.04l-20.3,43.73c-5.18,11.08-7.76,19.25-7.76,24.52,0,5.99,1.95,10.85,5.86,14.58,3.9,3.72,9.04,5.59,15.39,5.59,4.63,0,9.26-.82,13.9-2.45,4.63-1.63,10.49-4.54,17.57-8.72l1.91-1.09c1.73,4.27,3.93,7.38,6.61,9.33,2.68,1.95,6.06,2.93,10.15,2.93,5.45,0,12.01-1.7,19.69-5.11,4.53-2.01,8.85-4.43,12.99-7.16.95,2.8,2.53,5.19,4.79,7.16,3.91,3.41,9.17,5.11,15.8,5.11,8.98,0,21.34-4.39,37.08-13.17.9,3.19,2.59,5.88,5.09,8.06,3.9,3.41,9.17,5.11,15.8,5.11,9.54,0,22.89-4.95,40.05-14.85,1.2-.68,2.78-1.61,4.61-2.7,1.01,4.57,3.31,8.37,6.96,11.35,5.04,4.13,12.01,6.2,20.91,6.2,7.45,0,15.19-1.09,23.23-3.27,7.07-1.92,16.32-5.48,25.47-10.17,1.31,2.8,3.27,5.24,5.91,7.31,5.22,4.09,12.37,6.13,21.46,6.13,8.08,0,16.28-1.29,24.59-3.88,8.31-2.59,17.37-6.79,27.18-12.6,6.18-3.72,10.53-6.95,13.08-9.67,2.54-2.72,3.81-5.54,3.81-8.45,0-2.63-.84-4.84-2.52-6.61-1.68-1.77-3.79-2.66-6.33-2.66"/>
  <path class="st0" d="M903.81,132.15c-1.91-1.91-4.04-2.86-6.4-2.86-1.45,0-2.77.3-3.95.89-1.18.59-4.09,2.43-8.72,5.52-14.89,10.08-24.52,15.12-28.88,15.12-1.73,0-3.2-.79-4.43-2.38-1.23-1.59-2.57-4.43-4.02-8.51-2.82-7.81-4.59-16.26-5.31-25.34l1.23-.82c5.99-4.45,10.4-7.49,13.21-9.13l11.72-7.08,8.31-5.18c4.27-2.36,6.99-4.18,8.17-5.45,1.18-1.27,1.77-3.04,1.77-5.31,0-1.73-.43-3.36-1.29-4.9-.87-1.54-2.07-2.79-3.61-3.75-1.54-.95-3.13-1.43-4.77-1.43-3.63,0-10.9,3.27-21.8,9.81-12.62,7.63-21.71,13.85-27.25,18.66l29.15-62.53c2.45-5.18,3.68-8.86,3.68-11.04,0-2.91-.98-5.27-2.93-7.08-1.95-1.82-4.43-2.72-7.42-2.72s-5.54.89-7.36,2.66c-1.82,1.77-4.09,5.52-6.81,11.24l-48.35,103.73c-1.52,1.11-3.24,2.45-5.19,4.03-6.08,4.72-10.69,8.02-13.83,9.88-3.13,1.86-5.84,2.79-8.11,2.79-2.81,0-4.22-1.45-4.22-4.36,0-1.73.91-4.54,2.72-8.45l46.86-100.67c2.45-4.99,3.68-8.67,3.68-11.04,0-2.91-.98-5.27-2.93-7.08-1.95-1.82-4.43-2.72-7.42-2.72s-5.54.89-7.36,2.66c-1.82,1.77-4.09,5.52-6.81,11.24l-46.59,99.72c-.57,1.24-1.08,2.41-1.58,3.55-.07.13-.14.25-.2.39-3.01,6.71-8.75,10.84-15.05,14.34-3.12,1.73-6.68,2.84-8.68,2.84-3.18,0-4.77-1.63-4.77-4.9,0-1.82,1.13-4.99,3.41-9.54.73-1.45,1.43-2.88,2.11-4.29.68-1.41,1.34-2.79,1.97-4.15l4.5-9.4c2.36-4.99,3.54-8.67,3.54-11.03,0-2.54-.95-4.65-2.86-6.34-1.91-1.68-4.31-2.52-7.22-2.52-3.27,0-6.02,1.09-8.24,3.27-2.22,2.18-4.65,6.08-7.29,11.72l-4.22,8.99c-.27.36-1.63,3.41-4.09,9.13l-1.23,3c-4.99,5.9-9.24,10.15-12.74,12.74-3.5,2.59-6.88,3.88-10.15,3.88-2.27,0-4.07-.84-5.38-2.52-1.32-1.68-1.98-3.93-1.98-6.74,0-5.18,2.2-11.06,6.61-17.64,4.41-6.58,10.29-12.55,17.64-17.91,5.9-4.36,12.01-7.88,18.32-10.56,6.31-2.68,13.69-4.79,22.14-6.33,5.18-.91,8.79-2.16,10.83-3.75,2.04-1.59,3.07-3.88,3.07-6.88,0-6.54-4.13-9.81-12.4-9.81-3.91,0-8.63.64-14.17,1.91-5.54,1.27-11.2,3.05-16.96,5.31-5.77,2.27-10.83,4.72-15.19,7.36-13.08,7.45-23.59,16.85-31.54,28.2-7.95,11.35-11.92,22.53-11.92,33.51,0,8.45,2.34,15.19,7.02,20.23,4.68,5.04,11.01,7.56,19,7.56,4.63,0,8.92-.82,12.87-2.45,3.95-1.63,8.92-4.77,14.92-9.4,1.36,7.9,6.49,11.85,15.39,11.85,5.54,0,11.06-1.11,16.55-3.34,3.77-1.52,8.26-3.91,13.46-7.12.92,1.73,2.12,3.31,3.6,4.73,3.95,3.81,9.1,5.72,15.46,5.72,6.96,0,14.56-2.17,22.79-6.47.48,1.38,1.24,2.62,2.34,3.67,1.95,1.86,4.43,2.79,7.42,2.79s5.56-.93,7.42-2.79c1.86-1.86,4.11-5.56,6.74-11.1l10.76-22.89.41-.41c4-3.18,7.76-5.86,11.31-8.04,1.45,11.54,3.95,21.75,7.49,30.65,2.09,5.27,4.68,9.01,7.76,11.24,3.09,2.22,7.08,3.34,11.99,3.34s9.76-1.07,15.12-3.2c5.36-2.13,12.08-5.7,20.16-10.69,8.17-5.09,13.85-9.2,17.03-12.33,3.18-3.13,4.77-6.15,4.77-9.06,0-2.36-.95-4.5-2.86-6.4"/>
  <path class="st0" d="M655.18,59.68l-57.84,131.13c-2.63,5.81-5.02,9.76-7.15,11.85-2.13,2.09-4.84,3.13-8.1,3.13s-5.84-1.02-7.97-3.07c-2.13-2.04-3.2-4.56-3.2-7.56,0-2.45,1.27-6.4,3.81-11.85l54.43-123.64h-30.38c-6.63,0-11.13-.68-13.49-2.04-3.27-2-4.9-4.95-4.9-8.86,0-5.27,2.32-8.94,6.95-11.03,2.36-1.18,7.08-1.77,14.17-1.77h131.13c6.72,0,11.22.68,13.49,2.04,3.36,2.09,5.04,5.04,5.04,8.85,0,5.09-2.32,8.76-6.95,11.03-2.63,1.18-7.36,1.77-14.17,1.77h-74.87Z"/>
</svg>